<?xml version="1.0" encoding="UTF-8"?>
<svg xmlns="http://www.w3.org/2000/svg" xmlns:xlink="http://www.w3.org/1999/xlink" width="24px" height="24px" viewBox="0 0 24 24" version="1.1">
<g id="surface1">
<path style=" stroke:none;fill-rule:nonzero;fill:rgb(0%,0%,0%);fill-opacity:1;" d="M 21.402344 2.660156 C 21.0625 2.324219 20.515625 2.324219 20.171875 2.660156 L 18.25 4.582031 C 17.914062 4.921875 17.914062 5.472656 18.25 5.8125 C 18.589844 6.152344 19.144531 6.152344 19.480469 5.8125 L 21.402344 3.890625 C 21.742188 3.550781 21.742188 3 21.402344 2.660156 Z M 21.402344 2.660156 "/>
<path style=" stroke:none;fill-rule:nonzero;fill:rgb(0%,0%,0%);fill-opacity:1;" d="M 23.128906 9.8125 C 23.609375 9.8125 24 9.421875 24 8.945312 C 24 8.464844 23.609375 8.074219 23.128906 8.074219 L 20.414062 8.074219 C 19.933594 8.074219 19.546875 8.464844 19.546875 8.945312 C 19.546875 9.421875 19.933594 9.8125 20.414062 9.8125 Z M 23.128906 9.8125 "/>
<path style=" stroke:none;fill-rule:nonzero;fill:rgb(0%,0%,0%);fill-opacity:1;" d="M 12.113281 4.71875 L 10.191406 2.796875 C 9.851562 2.460938 9.304688 2.460938 8.964844 2.796875 C 8.625 3.136719 8.625 3.6875 8.964844 4.027344 L 10.886719 5.949219 C 11.226562 6.285156 11.777344 6.285156 12.117188 5.949219 C 12.457031 5.609375 12.453125 5.058594 12.113281 4.71875 Z M 12.113281 4.71875 "/>
<path style=" stroke:none;fill-rule:nonzero;fill:rgb(0%,0%,0%);fill-opacity:1;" d="M 16.039062 0.988281 C 16.039062 0.503906 15.648438 0.117188 15.171875 0.117188 C 14.691406 0.117188 14.300781 0.503906 14.300781 0.988281 L 14.300781 3.703125 C 14.300781 4.183594 14.691406 4.570312 15.171875 4.570312 C 15.648438 4.570312 16.039062 4.183594 16.039062 3.703125 Z M 16.039062 0.988281 "/>
<path style=" stroke:none;fill-rule:nonzero;fill:rgb(0%,0%,0%);fill-opacity:1;" d="M 18.171875 13.226562 L 20.089844 15.152344 C 20.429688 15.492188 20.980469 15.492188 21.320312 15.152344 C 21.660156 14.8125 21.660156 14.265625 21.320312 13.921875 L 19.398438 12 C 19.054688 11.664062 18.507812 11.664062 18.171875 12 C 17.828125 12.34375 17.828125 12.890625 18.171875 13.226562 Z M 18.171875 13.226562 "/>
<path style=" stroke:none;fill-rule:nonzero;fill:rgb(0%,0%,0%);fill-opacity:1;" d="M 0 20.746094 L 3.136719 23.882812 L 15.328125 11.691406 L 12.195312 8.550781 Z M 0 20.746094 "/>
<path style=" stroke:none;fill-rule:nonzero;fill:rgb(0%,0%,0%);fill-opacity:1;" d="M 17.996094 9.019531 L 14.863281 5.886719 L 13.523438 7.226562 L 16.652344 10.367188 Z M 17.996094 9.019531 "/>
</g>
</svg>
