<?xml version="1.0" encoding="UTF-8"?>
<svg xmlns="http://www.w3.org/2000/svg" xmlns:xlink="http://www.w3.org/1999/xlink" width="24px" height="24px" viewBox="0 0 24 24" version="1.1">
<g id="surface1">
<path style=" stroke:none;fill-rule:nonzero;fill:rgb(0%,0%,0%);fill-opacity:1;" d="M 12 24 C 5.371094 24 0 18.628906 0 12 C 0 5.371094 5.371094 0 12 0 C 18.628906 0 24 5.371094 24 12 C 24 18.628906 18.628906 24 12 24 Z M 12 1.847656 C 6.390625 1.847656 1.847656 6.390625 1.847656 12 C 1.847656 17.609375 6.390625 22.152344 12 22.152344 C 17.609375 22.152344 22.152344 17.609375 22.152344 12 C 22.152344 6.390625 17.609375 1.847656 12 1.847656 Z M 12 1.847656 "/>
<path style=" stroke:none;fill-rule:nonzero;fill:rgb(0%,0%,0%);fill-opacity:1;" d="M 10.617188 17.355469 C 10.371094 17.351562 10.136719 17.253906 9.964844 17.078125 L 5.71875 12.835938 C 5.40625 12.46875 5.429688 11.921875 5.769531 11.582031 C 6.113281 11.242188 6.660156 11.222656 7.023438 11.539062 L 11.265625 15.78125 C 11.527344 16.042969 11.605469 16.441406 11.464844 16.785156 C 11.324219 17.128906 10.988281 17.351562 10.617188 17.355469 Z M 10.617188 17.355469 "/>
<path style=" stroke:none;fill-rule:nonzero;fill:rgb(0%,0%,0%);fill-opacity:1;" d="M 10.617188 17.355469 C 10.242188 17.355469 9.902344 17.128906 9.761719 16.78125 C 9.617188 16.4375 9.699219 16.039062 9.964844 15.773438 L 16.976562 8.769531 C 17.335938 8.410156 17.921875 8.410156 18.28125 8.769531 C 18.640625 9.128906 18.640625 9.714844 18.28125 10.074219 L 11.265625 17.078125 C 11.09375 17.253906 10.859375 17.351562 10.617188 17.355469 Z M 10.617188 17.355469 "/>
</g>
</svg>
