<?xml version="1.0" encoding="UTF-8"?>
<svg xmlns="http://www.w3.org/2000/svg" xmlns:xlink="http://www.w3.org/1999/xlink" width="24px" height="24px" viewBox="0 0 24 24" version="1.1">
<g id="surface1">
<path style=" stroke:none;fill-rule:nonzero;fill:rgb(90.980392%,28.235294%,28.627451%);fill-opacity:1;" d="M 24 12 C 24 18.628906 18.628906 24 12 24 C 5.371094 24 0 18.628906 0 12 C 0 5.371094 5.371094 0 12 0 C 18.628906 0 24 5.371094 24 12 Z M 24 12 "/>
<path style=" stroke:none;fill-rule:nonzero;fill:rgb(92.941176%,78.823529%,17.254902%);fill-opacity:1;" d="M 20.726562 16.910156 L 12.492188 3.636719 C 12.394531 3.484375 12.226562 3.390625 12.046875 3.390625 C 11.863281 3.390625 11.695312 3.484375 11.597656 3.636719 L 3.34375 16.945312 C 3.242188 17.105469 3.238281 17.3125 3.328125 17.476562 C 3.421875 17.644531 3.597656 17.75 3.789062 17.75 L 20.304688 17.75 C 20.59375 17.75 20.828125 17.511719 20.828125 17.222656 C 20.828125 17.105469 20.789062 16.996094 20.726562 16.910156 Z M 20.726562 16.910156 "/>
<path style=" stroke:none;fill-rule:nonzero;fill:rgb(0%,0%,0%);fill-opacity:1;" d="M 11.433594 12.261719 L 11.265625 9.707031 C 11.234375 9.207031 11.21875 8.851562 11.21875 8.632812 C 11.21875 8.339844 11.292969 8.109375 11.449219 7.945312 C 11.601562 7.777344 11.808594 7.695312 12.058594 7.695312 C 12.367188 7.695312 12.570312 7.800781 12.671875 8.011719 C 12.777344 8.222656 12.828125 8.53125 12.828125 8.925781 C 12.828125 9.164062 12.816406 9.402344 12.789062 9.640625 L 12.5625 12.269531 C 12.535156 12.585938 12.484375 12.824219 12.402344 12.992188 C 12.320312 13.15625 12.183594 13.242188 11.996094 13.242188 C 11.804688 13.242188 11.671875 13.160156 11.59375 13 C 11.519531 12.835938 11.46875 12.589844 11.433594 12.261719 Z M 12.027344 15.769531 C 11.808594 15.769531 11.621094 15.699219 11.460938 15.558594 C 11.296875 15.417969 11.21875 15.222656 11.21875 14.96875 C 11.21875 14.75 11.292969 14.5625 11.449219 14.40625 C 11.601562 14.253906 11.792969 14.175781 12.015625 14.175781 C 12.242188 14.175781 12.433594 14.253906 12.589844 14.40625 C 12.75 14.5625 12.828125 14.75 12.828125 14.96875 C 12.828125 15.21875 12.746094 15.414062 12.585938 15.554688 C 12.425781 15.699219 12.242188 15.769531 12.027344 15.769531 Z M 12.027344 15.769531 "/>
</g>
</svg>
